# xmcd CD database file
#
# Track frame offsets:
#	150
#	20270
#	49583
#	79788
#	95415
#	120950
#	143913
#	161485
#	188733
#	212673
#	233053
#	263795
#
# Disc length: 3914 seconds
#
# Revision: 0
# Processed by: cddbd v1.5.2PL0 Copyright (c) Steve Scherf et al.
# Submitted via: CDex 1.51
#
DISCID=910f480c
DTITLE=Various Artist - Classic Salsa Collection
DYEAR=1996
DGENRE=Salsa
TTITLE0=Soul Sauce - Poncho Sanchez
TTITLE1=Sirena - Orchestra Gitano
TTITLE2=Oye Mama' - Yoboso'
TTITLE3=Siboney - Rene Touzet
TTITLE4=Si Quieres Triunfar - Orchestra Pueblo
TTITLE5=Cantaloupe Island Terry Seabrook's Cubana Bop
TTITLE6=Tu Me Das Amor - Sentir
TTITLE7=San Francisco Tiene Su Propio Son - Ritmo y Candela: Patato, Changuito and Orestes
TTITLE8=Brindando el Son - Bobby Sanabria and Ascension
TTITLE9=Que Caliente - Terry Seabrook's Cubana Bop
TTITLE10=Como Suena Mi Rumba - Orchestra Gitano
TTITLE11=El Son - Manny Oquendo and Libre
EXTD=YEAR: 1996
EXTT0=
EXTT1=
EXTT2=
EXTT3=
EXTT4=
EXTT5=
EXTT6=
EXTT7=
EXTT8=
EXTT9=
EXTT10=
EXTT11=
PLAYORDER=
